<svg version="1" xmlns="http://www.w3.org/2000/svg" width="564" height="564" viewBox="0 0 423.000000 423.000000"><path d="M60.5 3.9c-.3.2-.5 35.9-.5 79.2v78.8l21.3-.1c21.7-.2 29.6-1.1 39.7-4.6 14.1-4.9 27.2-14.3 35.9-25.6 14.7-19.1 19.9-43.9 14.1-68.1-6.7-28.8-30.1-51.7-59-58.1-1.9-.4-4.2-.9-5-1.1-2.3-.6-46-1-46.5-.4zM174.1 162c-.5.3-.9 58.2-.9 128.7V419l2.2.1c8.5.3 63.8-.1 66.6-.5 1.9-.2 5.8-.8 8.5-1.1 23.8-3.2 50.5-16.8 68.9-35 9.9-9.9 15.1-16.5 21.4-27.6 11.4-20 16.1-36.8 16.7-59.9.5-20.7-1.6-33.7-8.2-51.5-10.8-28.7-33.8-54.1-61.9-68.3-6.8-3.4-24.4-9.7-29.5-10.6-1.9-.3-4.3-.7-5.4-1-7.8-1.5-16.9-2-45.3-2-17.8-.1-32.7.1-33.1.4z"/></svg>